<svg xmlns="http://www.w3.org/2000/svg" width="8" height="11.294" viewBox="0 0 8 11.294">
  <path id="排除_1" data-name="排除 1" d="M-1653.176,11.294h-5.648A1.178,1.178,0,0,1-1660,10.118V5.882a1.179,1.179,0,0,1,.941-1.153V3.059A3.068,3.068,0,0,1-1656,0a3.067,3.067,0,0,1,3.059,3.059V4.73A1.179,1.179,0,0,1-1652,5.882v4.236A1.178,1.178,0,0,1-1653.176,11.294ZM-1656,6.415h0a.96.96,0,0,0-.958.955.965.965,0,0,0,.533.864l-.148,1.035a.191.191,0,0,0,.036.142.19.19,0,0,0,.127.075l.027,0h.767a.194.194,0,0,0,.194-.19.235.235,0,0,0,0-.029l-.148-1.036a.957.957,0,0,0,.532-.855.952.952,0,0,0-.278-.679.953.953,0,0,0-.677-.284h0Zm0-5a1.649,1.649,0,0,0-1.647,1.647V4.706h3.294V3.059A1.649,1.649,0,0,0-1656,1.412Z" transform="translate(1660)" fill="#fff"/>
</svg>
